<?xml version="1.0" encoding="UTF-8" standalone="no"?><!DOCTYPE svg PUBLIC "-//W3C//DTD SVG 1.1//EN" "http://www.w3.org/Graphics/SVG/1.1/DTD/svg11.dtd"><svg width="100%" height="100%" viewBox="0 0 230 96" version="1.1" xmlns="http://www.w3.org/2000/svg" xmlns:xlink="http://www.w3.org/1999/xlink" xml:space="preserve" xmlns:serif="http://www.serif.com/" style="fill-rule:evenodd;clip-rule:evenodd;stroke-linejoin:round;stroke-miterlimit:2;"><g><g><path d="M59.985,52.545c0.42,-0.863 0.948,-1.65 1.583,-2.36c1.88,-2.103 4.301,-3.728 7.265,-4.875c2.963,-1.147 6.261,-1.912 9.893,-2.295c3.633,-0.382 7.17,-0.573 10.611,-0.573l0,-0.765c0,-2.358 -0.829,-4.094 -2.486,-5.209c-1.656,-1.116 -3.696,-1.673 -6.117,-1.673c-2.231,0 -4.381,0.478 -6.453,1.434c-2.071,0.955 -3.839,2.103 -5.305,3.441l-7.934,-8.508c2.804,-2.676 6.07,-4.684 9.798,-6.022c3.728,-1.338 7.536,-2.007 11.423,-2.007c4.015,0 7.408,0.494 10.18,1.481c2.773,0.988 5.019,2.518 6.74,4.589c1.617,1.946 2.826,4.371 3.627,7.275c0.263,-1.764 0.806,-3.329 1.63,-4.694c1.211,-2.008 2.772,-3.649 4.684,-4.923c1.912,-1.275 4.031,-2.215 6.357,-2.82c2.326,-0.606 4.636,-0.908 6.93,-0.908c3.569,0 7.058,0.557 10.467,1.673c2.374,0.776 4.493,1.823 6.357,3.14l0,-27.946l15.772,0l0,43.971l0.287,0l15.199,-19.309l22.272,0l10.61,30.589l0.287,0l9.464,-30.589l16.632,0l-21.316,54.773c-0.956,2.485 -2.024,4.7 -3.203,6.644c-1.178,1.943 -2.58,3.6 -4.205,4.97c-1.625,1.37 -3.537,2.406 -5.736,3.107c-2.198,0.701 -4.795,1.051 -7.79,1.051c-1.466,0 -2.98,-0.095 -4.541,-0.286c-1.561,-0.191 -2.915,-0.446 -4.063,-0.765l1.721,-13.191c0.765,0.255 1.609,0.462 2.533,0.621c0.924,0.159 1.769,0.239 2.533,0.239c2.422,0 4.174,-0.558 5.258,-1.673c1.083,-1.115 2.007,-2.692 2.772,-4.732l1.529,-3.919l-15.183,-35.767l-8.905,10.436l19.118,26.096l-19.405,0l-15.581,-22.846l-0.287,0l0,22.846l-15.772,0l0,-7.288c-0.032,0.056 -0.064,0.111 -0.096,0.166c-1.211,2.072 -2.788,3.744 -4.732,5.019c-1.943,1.274 -4.126,2.199 -6.547,2.772c-2.422,0.574 -4.844,0.86 -7.265,0.86c-3.888,0 -7.695,-0.621 -11.423,-1.864c-1.821,-0.607 -3.494,-1.354 -5.019,-2.243l0,2.578l-14.338,0l0,-5.066l-0.287,0c-1.211,1.975 -3.043,3.505 -5.496,4.588c-2.454,1.083 -5.114,1.625 -7.982,1.625c-1.912,0 -3.888,-0.255 -5.927,-0.765c-2.039,-0.51 -3.903,-1.338 -5.592,-2.485c-1.689,-1.147 -3.075,-2.677 -4.158,-4.588c-0.138,-0.244 -0.268,-0.496 -0.388,-0.754l0,7.445l-16.346,0l0,-53.722l-19.118,0l0,-13.956l54.582,0l0,13.956l-19.118,0l0,34.001Zm29.83,-1.022l-2.008,0c-1.72,0 -3.457,0.08 -5.209,0.239c-1.753,0.159 -3.314,0.462 -4.684,0.908c-1.37,0.446 -2.501,1.099 -3.394,1.96c-0.892,0.86 -1.338,1.991 -1.338,3.393c0,0.892 0.207,1.657 0.621,2.294c0.415,0.637 0.94,1.147 1.578,1.53c0.637,0.382 1.37,0.653 2.198,0.812c0.829,0.159 1.625,0.239 2.39,0.239c3.186,0 5.624,-0.876 7.313,-2.629c1.688,-1.752 2.533,-4.126 2.533,-7.121l0,-1.625Zm14.268,-6.291c0.047,0.98 0.07,1.993 0.07,3.041l0,13.627l4.493,-4.737c1.402,1.529 3.123,2.804 5.162,3.823c2.039,1.02 4.206,1.53 6.5,1.53c1.274,0 2.533,-0.303 3.776,-0.908c1.242,-0.606 1.864,-1.673 1.864,-3.203c0,-1.465 -0.765,-2.549 -2.294,-3.25c-1.53,-0.701 -3.92,-1.434 -7.17,-2.198c-1.657,-0.383 -3.313,-0.892 -4.97,-1.53c-1.657,-0.637 -3.139,-1.497 -4.445,-2.581c-1.196,-0.991 -2.191,-2.196 -2.986,-3.614Zm35.152,-13.037l-6.309,6.519c-1.275,-1.211 -2.772,-2.231 -4.493,-3.059c-1.721,-0.828 -3.537,-1.243 -5.449,-1.243c-1.465,0 -2.819,0.287 -4.062,0.861c-1.243,0.573 -1.864,1.561 -1.864,2.963c0,1.338 0.685,2.294 2.055,2.868c1.37,0.573 3.585,1.21 6.644,1.911c1.784,0.383 3.584,0.924 5.4,1.625c1.817,0.701 3.458,1.625 4.923,2.773c1.265,0.99 2.317,2.17 3.155,3.54l0,-18.758Z" style="fill:#fff;fill-rule:nonzero;"/><rect x="0" y="4.588" width="19.762" height="13.932" style="fill:url(#_Linear1);"/><rect x="0" y="22.503" width="39.523" height="13.932" style="fill:url(#_Linear2);"/><rect x="0" y="40.419" width="39.523" height="13.932" style="fill:url(#_Linear3);"/><rect x="0" y="58.334" width="39.523" height="13.932" style="fill:url(#_Linear4);"/></g></g><defs><linearGradient id="_Linear1" x1="0" y1="0" x2="1" y2="0" gradientUnits="userSpaceOnUse" gradientTransform="matrix(4.15592e-15,67.8714,-24.5732,1.50468e-15,9.88083,4.58831)"><stop offset="0" style="stop-color:#ff577e;stop-opacity:1"/><stop offset="0.45" style="stop-color:#ff479e;stop-opacity:1"/><stop offset="1" style="stop-color:#ff21ea;stop-opacity:1"/></linearGradient><linearGradient id="_Linear2" x1="0" y1="0" x2="1" y2="0" gradientUnits="userSpaceOnUse" gradientTransform="matrix(4.15592e-15,67.8714,-24.5732,1.50468e-15,9.88083,4.58831)"><stop offset="0" style="stop-color:#ff577e;stop-opacity:1"/><stop offset="0.45" style="stop-color:#ff479e;stop-opacity:1"/><stop offset="1" style="stop-color:#ff21ea;stop-opacity:1"/></linearGradient><linearGradient id="_Linear3" x1="0" y1="0" x2="1" y2="0" gradientUnits="userSpaceOnUse" gradientTransform="matrix(4.15592e-15,67.8714,-24.5732,1.50468e-15,9.88083,4.58831)"><stop offset="0" style="stop-color:#ff577e;stop-opacity:1"/><stop offset="0.45" style="stop-color:#ff479e;stop-opacity:1"/><stop offset="1" style="stop-color:#ff21ea;stop-opacity:1"/></linearGradient><linearGradient id="_Linear4" x1="0" y1="0" x2="1" y2="0" gradientUnits="userSpaceOnUse" gradientTransform="matrix(4.15592e-15,67.8714,-24.5732,1.50468e-15,9.88083,4.58831)"><stop offset="0" style="stop-color:#ff577e;stop-opacity:1"/><stop offset="0.45" style="stop-color:#ff479e;stop-opacity:1"/><stop offset="1" style="stop-color:#ff21ea;stop-opacity:1"/></linearGradient></defs></svg>